<mxfile host="app.diagrams.net">
  <diagram name="TaskDependency Model Table ERD" id="taskDependency-model-table-erd">
    <mxGraphModel dx="692" dy="402" grid="1" gridSize="10" guides="1" tooltips="1" connect="1" arrows="1" fold="1" page="1" pageScale="1" pageWidth="1000" pageHeight="1169" math="0" shadow="0">
      <root>
        <mxCell id="0" />
        <mxCell id="1" parent="0" />
        <!-- Tiêu đề lớn -->
        <mxCell id="bigTitle" value="TASKDEPENDENCY MODEL - ERD TABLE" style="text;html=1;strokeColor=none;fillColor=none;align=center;fontSize=24;fontStyle=1;fontColor=#4472C4;" parent="1" vertex="1">
          <mxGeometry x="50" y="20" width="1000" height="50" as="geometry" />
        </mxCell>
        <!-- Bảng ERD -->
        <mxCell id="taskDependencyTable" value="" style="shape=table;startSize=0;container=1;collapsible=0;childLayout=tableLayout;fixedRows=1;rowLines=0;fontStyle=1;align=center;resizeLast=1;strokeColor=#000000;fillColor=#ffffff;" parent="1" vertex="1">
          <mxGeometry x="50" y="80" width="1000" height="330" as="geometry" />
        </mxCell>
        <!-- Header -->
        <mxCell id="header" value="" style="shape=tableRow;horizontal=0;fillColor=#4472C4;strokeColor=#000000;" parent="taskDependencyTable" vertex="1">
          <mxGeometry width="1000" height="40" as="geometry" />
        </mxCell>
        <mxCell id="h1" value="Tên trường" style="shape=partialRectangle;connectable=0;fillColor=#4472C4;align=center;fontStyle=1;fontSize=12;fontColor=#ffffff;" parent="header" vertex="1"><mxGeometry width="170" height="40" as="geometry" /></mxCell>
        <mxCell id="h2" value="Kiểu dữ liệu" style="shape=partialRectangle;connectable=0;fillColor=#4472C4;align=center;fontStyle=1;fontSize=12;fontColor=#ffffff;" parent="header" vertex="1"><mxGeometry x="170" width="120" height="40" as="geometry" /></mxCell>
        <mxCell id="h3" value="Ràng buộc/Enum" style="shape=partialRectangle;connectable=0;fillColor=#4472C4;align=center;fontStyle=1;fontSize=12;fontColor=#ffffff;" parent="header" vertex="1"><mxGeometry x="290" width="250" height="40" as="geometry" /></mxCell>
        <mxCell id="h4" value="Giá trị mặc định" style="shape=partialRectangle;connectable=0;fillColor=#4472C4;align=center;fontStyle=1;fontSize=12;fontColor=#ffffff;" parent="header" vertex="1"><mxGeometry x="540" width="140" height="40" as="geometry" /></mxCell>
        <mxCell id="h5" value="Mô tả" style="shape=partialRectangle;connectable=0;fillColor=#4472C4;align=center;fontStyle=1;fontSize=12;fontColor=#ffffff;" parent="header" vertex="1"><mxGeometry x="680" width="320" height="40" as="geometry" /></mxCell>
        <!-- Data Rows -->
        <mxCell id="row1" value="" style="shape=tableRow;horizontal=0;fillColor=#FFE6CC;strokeColor=#000000;" parent="taskDependencyTable" vertex="1"><mxGeometry y="40" width="1000" height="30" as="geometry" /></mxCell>
        <mxCell id="r1c1" value="_id" style="shape=partialRectangle;connectable=0;fillColor=#FFE6CC;align=left;fontStyle=1;" parent="row1" vertex="1"><mxGeometry width="170" height="30" as="geometry" /></mxCell>
        <mxCell id="r1c2" value="ObjectId" style="shape=partialRectangle;connectable=0;fillColor=#FFE6CC;align=left;" parent="row1" vertex="1"><mxGeometry x="170" width="120" height="30" as="geometry" /></mxCell>
        <mxCell id="r1c3" value="Primary Key" style="shape=partialRectangle;connectable=0;fillColor=#FFE6CC;align=left;" parent="row1" vertex="1"><mxGeometry x="290" width="250" height="30" as="geometry" /></mxCell>
        <mxCell id="r1c4" value="Tự động" style="shape=partialRectangle;connectable=0;fillColor=#FFE6CC;align=left;" parent="row1" vertex="1"><mxGeometry x="540" width="140" height="30" as="geometry" /></mxCell>
        <mxCell id="r1c5" value="Khóa chính MongoDB" style="shape=partialRectangle;connectable=0;fillColor=#FFE6CC;align=left;" parent="row1" vertex="1"><mxGeometry x="680" width="320" height="30" as="geometry" /></mxCell>
        <mxCell id="row2" value="" style="shape=tableRow;horizontal=0;fillColor=#ffffff;strokeColor=#000000;" parent="taskDependencyTable" vertex="1"><mxGeometry y="70" width="1000" height="30" as="geometry" /></mxCell>
        <mxCell id="r2c1" value="project_id" style="shape=partialRectangle;connectable=0;fillColor=#ffffff;align=left;" parent="row2" vertex="1"><mxGeometry width="170" height="30" as="geometry" /></mxCell>
        <mxCell id="r2c2" value="ObjectId" style="shape=partialRectangle;connectable=0;fillColor=#ffffff;align=left;" parent="row2" vertex="1"><mxGeometry x="170" width="120" height="30" as="geometry" /></mxCell>
        <mxCell id="r2c3" value="ref: Project, required" style="shape=partialRectangle;connectable=0;fillColor=#ffffff;align=left;" parent="row2" vertex="1"><mxGeometry x="290" width="250" height="30" as="geometry" /></mxCell>
        <mxCell id="r2c4" value="" style="shape=partialRectangle;connectable=0;fillColor=#ffffff;align=left;" parent="row2" vertex="1"><mxGeometry x="540" width="140" height="30" as="geometry" /></mxCell>
        <mxCell id="r2c5" value="Dự án liên kết" style="shape=partialRectangle;connectable=0;fillColor=#ffffff;align=left;" parent="row2" vertex="1"><mxGeometry x="680" width="320" height="30" as="geometry" /></mxCell>
        <mxCell id="row3" value="" style="shape=tableRow;horizontal=0;fillColor=#E6F3FF;strokeColor=#000000;" parent="taskDependencyTable" vertex="1"><mxGeometry y="100" width="1000" height="30" as="geometry" /></mxCell>
        <mxCell id="r3c1" value="source_task_id" style="shape=partialRectangle;connectable=0;fillColor=#E6F3FF;align=left;" parent="row3" vertex="1"><mxGeometry width="170" height="30" as="geometry" /></mxCell>
        <mxCell id="r3c2" value="ObjectId" style="shape=partialRectangle;connectable=0;fillColor=#E6F3FF;align=left;" parent="row3" vertex="1"><mxGeometry x="170" width="120" height="30" as="geometry" /></mxCell>
        <mxCell id="r3c3" value="ref: KanbanTask, required" style="shape=partialRectangle;connectable=0;fillColor=#E6F3FF;align=left;" parent="row3" vertex="1"><mxGeometry x="290" width="250" height="30" as="geometry" /></mxCell>
        <mxCell id="r3c4" value="" style="shape=partialRectangle;connectable=0;fillColor=#E6F3FF;align=left;" parent="row3" vertex="1"><mxGeometry x="540" width="140" height="30" as="geometry" /></mxCell>
        <mxCell id="r3c5" value="Task nguồn" style="shape=partialRectangle;connectable=0;fillColor=#E6F3FF;align=left;" parent="row3" vertex="1"><mxGeometry x="680" width="320" height="30" as="geometry" /></mxCell>
        <mxCell id="row4" value="" style="shape=tableRow;horizontal=0;fillColor=#ffffff;strokeColor=#000000;" parent="taskDependencyTable" vertex="1"><mxGeometry y="130" width="1000" height="30" as="geometry" /></mxCell>
        <mxCell id="r4c1" value="target_task_id" style="shape=partialRectangle;connectable=0;fillColor=#ffffff;align=left;" parent="row4" vertex="1"><mxGeometry width="170" height="30" as="geometry" /></mxCell>
        <mxCell id="r4c2" value="ObjectId" style="shape=partialRectangle;connectable=0;fillColor=#ffffff;align=left;" parent="row4" vertex="1"><mxGeometry x="170" width="120" height="30" as="geometry" /></mxCell>
        <mxCell id="r4c3" value="ref: KanbanTask, required" style="shape=partialRectangle;connectable=0;fillColor=#ffffff;align=left;" parent="row4" vertex="1"><mxGeometry x="290" width="250" height="30" as="geometry" /></mxCell>
        <mxCell id="r4c4" value="" style="shape=partialRectangle;connectable=0;fillColor=#ffffff;align=left;" parent="row4" vertex="1"><mxGeometry x="540" width="140" height="30" as="geometry" /></mxCell>
        <mxCell id="r4c5" value="Task đích" style="shape=partialRectangle;connectable=0;fillColor=#ffffff;align=left;" parent="row4" vertex="1"><mxGeometry x="680" width="320" height="30" as="geometry" /></mxCell>
        <mxCell id="row5" value="" style="shape=tableRow;horizontal=0;fillColor=#E6F3FF;strokeColor=#000000;" parent="taskDependencyTable" vertex="1"><mxGeometry y="160" width="1000" height="30" as="geometry" /></mxCell>
        <mxCell id="r5c1" value="dependency_type" style="shape=partialRectangle;connectable=0;fillColor=#E6F3FF;align=left;" parent="row5" vertex="1"><mxGeometry width="170" height="30" as="geometry" /></mxCell>
        <mxCell id="r5c2" value="String" style="shape=partialRectangle;connectable=0;fillColor=#E6F3FF;align=left;" parent="row5" vertex="1"><mxGeometry x="170" width="120" height="30" as="geometry" /></mxCell>
        <mxCell id="r5c3" value="enum: finish-to-start, start-to-start, finish-to-finish, start-to-finish" style="shape=partialRectangle;connectable=0;fillColor=#E6F3FF;align=left;" parent="row5" vertex="1"><mxGeometry x="290" width="250" height="30" as="geometry" /></mxCell>
        <mxCell id="r5c4" value="finish-to-start" style="shape=partialRectangle;connectable=0;fillColor=#E6F3FF;align=left;" parent="row5" vertex="1"><mxGeometry x="540" width="140" height="30" as="geometry" /></mxCell>
        <mxCell id="r5c5" value="Loại phụ thuộc" style="shape=partialRectangle;connectable=0;fillColor=#E6F3FF;align=left;" parent="row5" vertex="1"><mxGeometry x="680" width="320" height="30" as="geometry" /></mxCell>
        <mxCell id="row6" value="" style="shape=tableRow;horizontal=0;fillColor=#ffffff;strokeColor=#000000;" parent="taskDependencyTable" vertex="1"><mxGeometry y="190" width="1000" height="30" as="geometry" /></mxCell>
        <mxCell id="r6c1" value="lag_days" style="shape=partialRectangle;connectable=0;fillColor=#ffffff;align=left;" parent="row6" vertex="1"><mxGeometry width="170" height="30" as="geometry" /></mxCell>
        <mxCell id="r6c2" value="Number" style="shape=partialRectangle;connectable=0;fillColor=#ffffff;align=left;" parent="row6" vertex="1"><mxGeometry x="170" width="120" height="30" as="geometry" /></mxCell>
        <mxCell id="r6c3" value="" style="shape=partialRectangle;connectable=0;fillColor=#ffffff;align=left;" parent="row6" vertex="1"><mxGeometry x="290" width="250" height="30" as="geometry" /></mxCell>
        <mxCell id="r6c4" value="0" style="shape=partialRectangle;connectable=0;fillColor=#ffffff;align=left;" parent="row6" vertex="1"><mxGeometry x="540" width="140" height="30" as="geometry" /></mxCell>
        <mxCell id="r6c5" value="Số ngày trễ (có thể âm cho lead time)" style="shape=partialRectangle;connectable=0;fillColor=#ffffff;align=left;" parent="row6" vertex="1"><mxGeometry x="680" width="320" height="30" as="geometry" /></mxCell>
        <mxCell id="row7" value="" style="shape=tableRow;horizontal=0;fillColor=#E6F3FF;strokeColor=#000000;" parent="taskDependencyTable" vertex="1"><mxGeometry y="220" width="1000" height="30" as="geometry" /></mxCell>
        <mxCell id="r7c1" value="created_by" style="shape=partialRectangle;connectable=0;fillColor=#E6F3FF;align=left;" parent="row7" vertex="1"><mxGeometry width="170" height="30" as="geometry" /></mxCell>
        <mxCell id="r7c2" value="ObjectId" style="shape=partialRectangle;connectable=0;fillColor=#E6F3FF;align=left;" parent="row7" vertex="1"><mxGeometry x="170" width="120" height="30" as="geometry" /></mxCell>
        <mxCell id="r7c3" value="ref: User, required" style="shape=partialRectangle;connectable=0;fillColor=#E6F3FF;align=left;" parent="row7" vertex="1"><mxGeometry x="290" width="250" height="30" as="geometry" /></mxCell>
        <mxCell id="r7c4" value="" style="shape=partialRectangle;connectable=0;fillColor=#E6F3FF;align=left;" parent="row7" vertex="1"><mxGeometry x="540" width="140" height="30" as="geometry" /></mxCell>
        <mxCell id="r7c5" value="Người tạo" style="shape=partialRectangle;connectable=0;fillColor=#E6F3FF;align=left;" parent="row7" vertex="1"><mxGeometry x="680" width="320" height="30" as="geometry" /></mxCell>
        <mxCell id="row8" value="" style="shape=tableRow;horizontal=0;fillColor=#ffffff;strokeColor=#000000;" parent="taskDependencyTable" vertex="1"><mxGeometry y="250" width="1000" height="30" as="geometry" /></mxCell>
        <mxCell id="r8c1" value="is_active" style="shape=partialRectangle;connectable=0;fillColor=#ffffff;align=left;" parent="row8" vertex="1"><mxGeometry width="170" height="30" as="geometry" /></mxCell>
        <mxCell id="r8c2" value="Boolean" style="shape=partialRectangle;connectable=0;fillColor=#ffffff;align=left;" parent="row8" vertex="1"><mxGeometry x="170" width="120" height="30" as="geometry" /></mxCell>
        <mxCell id="r8c3" value="" style="shape=partialRectangle;connectable=0;fillColor=#ffffff;align=left;" parent="row8" vertex="1"><mxGeometry x="290" width="250" height="30" as="geometry" /></mxCell>
        <mxCell id="r8c4" value="true" style="shape=partialRectangle;connectable=0;fillColor=#ffffff;align=left;" parent="row8" vertex="1"><mxGeometry x="540" width="140" height="30" as="geometry" /></mxCell>
        <mxCell id="r8c5" value="Còn hiệu lực" style="shape=partialRectangle;connectable=0;fillColor=#ffffff;align=left;" parent="row8" vertex="1"><mxGeometry x="680" width="320" height="30" as="geometry" /></mxCell>
        <mxCell id="row9" value="" style="shape=tableRow;horizontal=0;fillColor=#E6F3FF;strokeColor=#000000;" parent="taskDependencyTable" vertex="1"><mxGeometry y="280" width="1000" height="30" as="geometry" /></mxCell>
        <mxCell id="r9c1" value="createdAt" style="shape=partialRectangle;connectable=0;fillColor=#E6F3FF;align=left;" parent="row9" vertex="1"><mxGeometry width="170" height="30" as="geometry" /></mxCell>
        <mxCell id="r9c2" value="Date" style="shape=partialRectangle;connectable=0;fillColor=#E6F3FF;align=left;" parent="row9" vertex="1"><mxGeometry x="170" width="120" height="30" as="geometry" /></mxCell>
        <mxCell id="r9c3" value="" style="shape=partialRectangle;connectable=0;fillColor=#E6F3FF;align=left;" parent="row9" vertex="1"><mxGeometry x="290" width="250" height="30" as="geometry" /></mxCell>
        <mxCell id="r9c4" value="Tự động" style="shape=partialRectangle;connectable=0;fillColor=#E6F3FF;align=left;" parent="row9" vertex="1"><mxGeometry x="540" width="140" height="30" as="geometry" /></mxCell>
        <mxCell id="r9c5" value="Ngày tạo" style="shape=partialRectangle;connectable=0;fillColor=#E6F3FF;align=left;" parent="row9" vertex="1"><mxGeometry x="680" width="320" height="30" as="geometry" /></mxCell>
        <mxCell id="row10" value="" style="shape=tableRow;horizontal=0;fillColor=#ffffff;strokeColor=#000000;" parent="taskDependencyTable" vertex="1"><mxGeometry y="310" width="1000" height="30" as="geometry" /></mxCell>
        <mxCell id="r10c1" value="updatedAt" style="shape=partialRectangle;connectable=0;fillColor=#ffffff;align=left;" parent="row10" vertex="1"><mxGeometry width="170" height="30" as="geometry" /></mxCell>
        <mxCell id="r10c2" value="Date" style="shape=partialRectangle;connectable=0;fillColor=#ffffff;align=left;" parent="row10" vertex="1"><mxGeometry x="170" width="120" height="30" as="geometry" /></mxCell>
        <mxCell id="r10c3" value="" style="shape=partialRectangle;connectable=0;fillColor=#ffffff;align=left;" parent="row10" vertex="1"><mxGeometry x="290" width="250" height="30" as="geometry" /></mxCell>
        <mxCell id="r10c4" value="Tự động" style="shape=partialRectangle;connectable=0;fillColor=#ffffff;align=left;" parent="row10" vertex="1"><mxGeometry x="540" width="140" height="30" as="geometry" /></mxCell>
        <mxCell id="r10c5" value="Ngày cập nhật" style="shape=partialRectangle;connectable=0;fillColor=#ffffff;align=left;" parent="row10" vertex="1"><mxGeometry x="680" width="320" height="30" as="geometry" /></mxCell>
      </root>
    </mxGraphModel>
  </diagram>
</mxfile>
